<?xml version="1.0" encoding="UTF-8" standalone="no"?>
<svg xmlns:dc="http://purl.org/dc/elements/1.1/" xmlns:cc="http://creativecommons.org/ns#" xmlns:rdf="http://www.w3.org/1999/02/22-rdf-syntax-ns#" xmlns:svg="http://www.w3.org/2000/svg" xmlns="http://www.w3.org/2000/svg" xmlns:sodipodi="http://sodipodi.sourceforge.net/DTD/sodipodi-0.dtd" xmlns:inkscape="http://www.inkscape.org/namespaces/inkscape" width="100" height="100" viewBox="0 0 100 100" id="svg7116" version="1.1" inkscape:version="0.91 r" sodipodi:docname="delivery-setting-package-packed-parcel-shipping.svg">
  <defs id="defs7118"/>
  <sodipodi:namedview id="base" pagecolor="#ffffff" bordercolor="#666666" borderopacity="1.0" inkscape:pageopacity="0.0" inkscape:pageshadow="2" inkscape:zoom="4" inkscape:cx="35.8986" inkscape:cy="62.396824" inkscape:document-units="px" inkscape:current-layer="layer1" showgrid="false" units="px" inkscape:window-width="1309" inkscape:window-height="744" inkscape:window-x="57" inkscape:window-y="24" inkscape:window-maximized="1"/>
  
  <g inkscape:label="Layer 1" inkscape:groupmode="layer" id="layer1" transform="translate(0,-952.36216)">
    <g id="g8121">
      <g id="g8107">
        <path inkscape:connector-curvature="0" style="fill:none;fill-rule:evenodd;stroke:#065fff;stroke-width:2;stroke-linecap:butt;stroke-linejoin:miter;stroke-miterlimit:4;stroke-dasharray:none;stroke-opacity:1" d="m 87.7391,1024.6759 7.0137,-4.2774" id="path6786"/>
        <path inkscape:connector-curvature="0" style="opacity:1;fill:none;fill-opacity:1;fill-rule:nonzero;stroke:#065fff;stroke-width:2;stroke-linecap:square;stroke-linejoin:miter;stroke-miterlimit:4;stroke-dasharray:none;stroke-dashoffset:0;stroke-opacity:1" d="m 94.276,1019.1989 -1e-4,-59.84849 -2,0" id="path6163"/>
        <path inkscape:connector-curvature="0" id="path6176" d="m 94.2757,1020.1469 0,1.0496" style="fill:none;fill-rule:evenodd;stroke:#065fff;stroke-width:2;stroke-linecap:butt;stroke-linejoin:miter;stroke-miterlimit:4;stroke-dasharray:none;stroke-opacity:1"/>
        <path inkscape:connector-curvature="0" style="opacity:1;fill:none;fill-opacity:1;fill-rule:nonzero;stroke:#065fff;stroke-width:2;stroke-linecap:square;stroke-linejoin:miter;stroke-miterlimit:4;stroke-dasharray:none;stroke-dashoffset:0;stroke-opacity:1" d="m 92.2759,959.35041 -28.724678,0 m -11.291612,0 -18.88761,0 0,0 0,0" id="path6146" sodipodi:nodetypes="cccccc"/>
        <path sodipodi:nodetypes="ccc" inkscape:connector-curvature="0" id="path8763" d="m 5.2471,976.06881 26.3401,-16.0623 1.3077,-0.7878" style="fill:none;fill-rule:evenodd;stroke:#065fff;stroke-width:2;stroke-linecap:butt;stroke-linejoin:miter;stroke-miterlimit:4;stroke-dasharray:none;stroke-opacity:1"/>
        <path style="fill:none;fill-rule:evenodd;stroke:#065fff;stroke-width:2;stroke-linecap:butt;stroke-linejoin:miter;stroke-miterlimit:4;stroke-dasharray:none;stroke-opacity:1" d="m 66.0398,976.49391 28.6575,-16.5375" id="path8765" inkscape:connector-curvature="0" sodipodi:nodetypes="cc"/>
        <path style="fill:none;fill-rule:evenodd;stroke:#065fff;stroke-width:2;stroke-linecap:butt;stroke-linejoin:miter;stroke-miterlimit:4;stroke-dasharray:none;stroke-opacity:1" d="m 94.2757,1020.2016 0,1.0496" id="path6184" inkscape:connector-curvature="0"/>
        <path inkscape:connector-curvature="0" style="opacity:1;fill:none;fill-opacity:1;fill-rule:nonzero;stroke:#065fff;stroke-width:2;stroke-linecap:square;stroke-linejoin:miter;stroke-miterlimit:4;stroke-dasharray:none;stroke-dashoffset:0;stroke-opacity:1" d="m 25.374878,976.20751 -19.650178,0 c -0.00122,21.21277 -7e-4,42.74879 -7e-4,60.90409 l 42.9824,0 m 17.9206,-35.576 0,-25.32809 -25.4609,0 -4.207,0 0.329456,0" id="path4163" sodipodi:nodetypes="ccccccccc"/>
        <circle r="11.93336" cy="1023.8886" cx="66.513313" id="circle6414" style="opacity:1;fill:none;fill-opacity:1;fill-rule:nonzero;stroke:#e41e1e;stroke-width:2;stroke-linecap:butt;stroke-linejoin:miter;stroke-miterlimit:4;stroke-dasharray:none;stroke-dashoffset:0;stroke-opacity:1"/>
        <circle style="opacity:1;fill:none;fill-opacity:1;fill-rule:nonzero;stroke:#e41e1e;stroke-width:2;stroke-linecap:butt;stroke-linejoin:miter;stroke-miterlimit:4;stroke-dasharray:none;stroke-dashoffset:0;stroke-opacity:1" id="circle6438" cx="66.513313" cy="1023.8886" r="8.6644421"/>
        <path style="opacity:1;fill:none;fill-opacity:1;fill-rule:nonzero;stroke:#e41e1e;stroke-width:2;stroke-linecap:butt;stroke-linejoin:miter;stroke-miterlimit:4;stroke-dasharray:none;stroke-dashoffset:0;stroke-opacity:1" d="m 61.4607,1002.6957 0.94,3.6262 c -0.2188,0.059 -0.4365,0.1219 -0.653,0.1888 -0.055,0.014 -0.1093,0.028 -0.1642,0.041 -0.166,0.043 -0.3315,0.088 -0.4963,0.1351 -0.058,0.021 -0.1168,0.043 -0.1745,0.064 -0.267,0.091 -0.5317,0.1879 -0.7941,0.2912 -0.084,0.03 -0.1688,0.062 -0.2529,0.093 -0.1562,0.058 -0.3115,0.1169 -0.4661,0.1788 -0.067,0.031 -0.1333,0.064 -0.1997,0.097 -0.2208,0.1018 -0.4396,0.2076 -0.6561,0.3179 -0.1094,0.052 -0.2184,0.1043 -0.3268,0.1582 -0.1456,0.07 -0.2904,0.1437 -0.434,0.2185 -0.2677,0.1446 -0.5317,0.296 -0.7918,0.4541 l -1.9842,-3.2036 -7.0251,7.0249 3.2011,1.9828 c -0.2346,0.3885 -0.4545,0.7857 -0.6593,1.1907 -0.036,0.065 -0.073,0.1312 -0.1093,0.1972 -0.078,0.1679 -0.1534,0.3371 -0.2262,0.5072 -0.06,0.1275 -0.1206,0.2556 -0.1783,0.3846 -0.028,0.067 -0.055,0.1331 -0.083,0.1998 -0.05,0.1106 -0.1005,0.2216 -0.1485,0.333 -0.033,0.075 -0.065,0.1498 -0.097,0.2251 -0.057,0.1639 -0.1118,0.3285 -0.1635,0.4939 -0.05,0.1394 -0.099,0.2794 -0.1457,0.42 -0.023,0.073 -0.045,0.1463 -0.067,0.2195 -0.035,0.1056 -0.07,0.2115 -0.1043,0.3177 -0.031,0.095 -0.062,0.1903 -0.09,0.2858 -0.037,0.1361 -0.072,0.2727 -0.1043,0.4097 -0.02,0.077 -0.04,0.1528 -0.059,0.2293 l -3.6685,-0.8621 0,9.9348 3.6656,-0.8614 c 0.013,0.036 0.021,0.073 0.031,0.1094 0.067,0.2512 0.1381,0.501 0.2153,0.7492 0.058,0.2052 0.1181,0.4093 0.1825,0.6124 0.036,0.1257 0.074,0.2502 0.1131,0.3748 0.078,0.2056 0.1593,0.4098 0.2445,0.6123 0.099,0.2591 0.2049,0.5157 0.3161,0.7698 0.04,0.098 0.08,0.1958 0.1219,0.2932 0.08,0.1593 0.1622,0.3175 0.2469,0.4745 0.2343,0.4824 0.4899,0.9542 0.7662,1.4138 l -3.2036,1.9845 7.0249,7.0248 1.9828,-3.2008 c 0.8435,0.5121 1.7276,0.9539 2.6434,1.3214 l 0.024,0.013 c 0.023,0.013 0.044,0.019 0.067,0.028 0.4736,0.1897 0.9552,0.3589 1.4432,0.5077 0.1504,0.049 0.3016,0.097 0.4533,0.1417 0.2606,0.078 0.523,0.1489 0.7869,0.2144 l -0.8673,3.6899 9.9349,0 -0.8662,-3.6859 c 0.3879,-0.097 0.7726,-0.2074 1.1533,-0.3302 0.023,-0.013 0.045,-0.013 0.068,-0.019 1.4696,-0.4533 2.8751,-1.0928 4.1823,-1.9028 l 1.9977,3.2252 7.0251,-7.0248 -3.238,-2.0059 0.053,-0.079 c 0.078,-0.1288 0.1551,-0.2587 0.2303,-0.3894 0.2018,-0.3482 0.3918,-0.703 0.5699,-1.0639 0.1156,-0.2362 0.2267,-0.475 0.3321,-0.7161 0.1169,-0.2644 0.2271,-0.5315 0.3311,-0.8012 0.1344,-0.351 0.2578,-0.7062 0.3701,-1.065 0.1438,-0.4498 0.2355,-0.8553 0.3421,-1.2846 l 3.7169,0.8735 0,-9.9349 -3.7062,0.8712 c -0.1366,-0.5789 -0.3017,-1.1507 -0.4949,-1.7132 -0.012,-0.028 -0.02,-0.054 -0.03,-0.082 -0.1713,-0.4961 -0.3641,-0.9846 -0.578,-1.4639 -0.1005,-0.2159 -0.2043,-0.4297 -0.3128,-0.6414 -0.1497,-0.3119 -0.3083,-0.6196 -0.4755,-0.9224 -0.077,-0.1346 -0.155,-0.2682 -0.235,-0.4008 -0.035,-0.06 -0.07,-0.1219 -0.1069,-0.182 l 3.2279,-1.9991 -7.025,-7.0251 -1.9935,3.2181 c -0.2374,-0.1392 -0.4779,-0.2729 -0.7215,-0.4011 -0.1999,-0.1169 -0.4021,-0.2287 -0.6063,-0.3373 -0.1633,-0.084 -0.3278,-0.165 -0.4934,-0.2438 l -0.034,-0.015 c -0.026,-0.013 -0.054,-0.021 -0.08,-0.033 -0.536,-0.2495 -1.0839,-0.4726 -1.6417,-0.6684 l -0.028,-0.013 -0.049,-0.015 c -0.5718,-0.2033 -1.1534,-0.3777 -1.7428,-0.5225 l 0.8229,-3.6684 c -3.405935,-0 -6.911142,0.033 -9.975,0.035 z" id="path6412" inkscape:connector-curvature="0" sodipodi:nodetypes="cccccccccccccccccccccccccccccccccccccccccccccccccccccccccccccccccccccccccccccccccccccccccccc"/>
        <path sodipodi:nodetypes="cccccccc" inkscape:connector-curvature="0" id="path6525-5" d="m 26.3691,975.77491 26.9733,-16.4297 10.7207,0 -27.1059,16.4258 0,22.5206 -5.3693,-6.0694 -5.2188,6.0694 z" style="opacity:1;fill:none;fill-opacity:1;fill-rule:nonzero;stroke:#e41e1e;stroke-width:2;stroke-linecap:butt;stroke-linejoin:miter;stroke-miterlimit:4;stroke-dasharray:none;stroke-dashoffset:0;stroke-opacity:1"/>
      </g>
    </g>
  </g>

	
	<metadata>
		<rdf:RDF xmlns:rdf="http://www.w3.org/1999/02/22-rdf-syntax-ns#" xmlns:rdfs="http://www.w3.org/2000/01/rdf-schema#" xmlns:dc="http://purl.org/dc/elements/1.1/">
			<rdf:Description about="https://iconscout.com/legal#licenses" dc:title="Delivery, Setting, Package, Packed, Parcel, Shipping" dc:description="Delivery, Setting, Package, Packed, Parcel, Shipping" dc:publisher="Iconscout" dc:date="2016-12-14" dc:format="image/svg+xml" dc:language="en">
				<dc:creator>
					<rdf:Bag>
						<rdf:li>Devendra Karkar</rdf:li>
					</rdf:Bag>
				</dc:creator>
			</rdf:Description>
		</rdf:RDF>
    </metadata></svg>
