<svg xmlns="http://www.w3.org/2000/svg" width="32" height="32" viewBox="0 0 32 32"><g transform="translate(0 -1020.362)"><g transform="translate(-71.712 -81.311)"><g transform="translate(23.006 -118.136)"><path d="m 71.276556,1227.081 -2.755859,-2.7559 -4.827242,4.8254 0.09671,1.6298" style="isolation:auto;mix-blend-mode:normal;solid-color:#000;solid-opacity:1" fill="#0dc889" color="#000" enable-background="accumulate" overflow="visible"/><path d="m 63.493653,1232.3469 0.785922,-1.5438 8.061695,-4.2757 2.980865,5.6204" style="isolation:auto;mix-blend-mode:normal;solid-color:#000;solid-opacity:1" fill="#57ce89" color="#000" enable-background="accumulate" overflow="visible"/><path fill="#37be70" d="m 72.341797,206.16602 -6.589844,3.49414 c 0.54523,0.41727 1.086207,0.8617 1.621094,1.34179 0.320828,0.28797 0.626571,0.59662 0.935547,0.90039 l 7.013672,-0.11718 -2.980469,-5.61914 z" color="#000" enable-background="accumulate" overflow="visible" transform="translate(0 1020.362)" style="isolation:auto;mix-blend-mode:normal;solid-color:#000;solid-opacity:1"/><path fill="#099566" d="m 68.521484,203.96289 -4.498046,4.49609 c 0.52103,0.33091 1.038486,0.68961 1.552734,1.07618 l 5.701172,-2.81641 -2.75586,-2.75586 z" color="#000" enable-background="accumulate" overflow="visible" transform="translate(0 1020.362)" style="isolation:auto;mix-blend-mode:normal;solid-color:#000;solid-opacity:1"/><path style="isolation:auto;mix-blend-mode:normal;solid-color:#000;solid-opacity:1" fill="none" stroke="#000" stroke-linejoin="round" d="M71.276556 1227.081l-2.755859-2.7559-4.827242 4.8254.09671 1.6298M63.493653 1232.3469l.785922-1.5438 8.061695-4.2757 2.980865 5.6204" color="#000" enable-background="accumulate" overflow="visible"/><path d="m 64.270701,1232.3095 11.435526,0 c 0.831009,0 1.500017,0.669 1.500017,1.5 l 0,13 c 0,0.831 -0.669008,1.5 -1.500017,1.5 l -18.999966,0 c -0.831009,0 -1.500017,-0.669 -1.500017,-1.5 l 0,-10.7598" style="isolation:auto;mix-blend-mode:normal;solid-color:#000;solid-opacity:1" fill="#b0643f" color="#000" enable-background="accumulate" overflow="visible"/><rect style="isolation:auto;mix-blend-mode:normal;solid-color:#000;solid-opacity:1" width="1" height="1" x="64.706" y="1233.809" color="#000" enable-background="accumulate" overflow="visible"/><rect width="1" height="1" x="66.706" y="1233.809" style="isolation:auto;mix-blend-mode:normal;solid-color:#000;solid-opacity:1" color="#000" enable-background="accumulate" overflow="visible"/><path fill="#935435" d="m 68.353516,211.94727 c 4.529437,4.47275 7.725062,10.54735 7.916015,15.88867 0.549652,-0.22215 0.9375,-0.75756 0.9375,-1.38867 l 0,-13 c 0,-0.831 -0.668991,-1.5 -1.5,-1.5 l -7.353515,0 z" color="#000" enable-background="accumulate" overflow="visible" transform="translate(0 1020.362)" style="isolation:auto;mix-blend-mode:normal;solid-color:#000;solid-opacity:1"/><rect style="isolation:auto;mix-blend-mode:normal;solid-color:#000;solid-opacity:1" width="1" height="1" x="68.706" y="1233.809" color="#000" enable-background="accumulate" overflow="visible"/><rect width="1" height="1" x="70.706" y="1233.809" style="isolation:auto;mix-blend-mode:normal;solid-color:#000;solid-opacity:1" color="#000" enable-background="accumulate" overflow="visible"/><rect style="isolation:auto;mix-blend-mode:normal;solid-color:#000;solid-opacity:1" width="1" height="1" x="72.706" y="1233.809" color="#000" enable-background="accumulate" overflow="visible"/><rect width="1" height="1" x="74.706" y="1233.809" style="isolation:auto;mix-blend-mode:normal;solid-color:#000;solid-opacity:1" color="#000" enable-background="accumulate" overflow="visible"/><rect style="isolation:auto;mix-blend-mode:normal;solid-color:#000;solid-opacity:1" width="1" height="1" x="74.706" y="1235.809" color="#000" enable-background="accumulate" overflow="visible"/><rect style="isolation:auto;mix-blend-mode:normal;solid-color:#000;solid-opacity:1" width="1" height="1" x="74.706" y="1243.809" color="#000" enable-background="accumulate" overflow="visible"/><rect width="1" height="1" x="74.706" y="1245.809" style="isolation:auto;mix-blend-mode:normal;solid-color:#000;solid-opacity:1" color="#000" enable-background="accumulate" overflow="visible"/><rect style="isolation:auto;mix-blend-mode:normal;solid-color:#000;solid-opacity:1" width="1" height="1" x="72.706" y="1245.809" color="#000" enable-background="accumulate" overflow="visible"/><rect style="isolation:auto;mix-blend-mode:normal;solid-color:#000;solid-opacity:1" width="1" height="1" x="56.706" y="1237.809" color="#000" enable-background="accumulate" overflow="visible"/><rect width="1" height="1" x="56.706" y="1239.809" style="isolation:auto;mix-blend-mode:normal;solid-color:#000;solid-opacity:1" color="#000" enable-background="accumulate" overflow="visible"/><rect style="isolation:auto;mix-blend-mode:normal;solid-color:#000;solid-opacity:1" width="1" height="1" x="56.706" y="1241.809" color="#000" enable-background="accumulate" overflow="visible"/><rect width="1" height="1" x="56.706" y="1243.809" style="isolation:auto;mix-blend-mode:normal;solid-color:#000;solid-opacity:1" color="#000" enable-background="accumulate" overflow="visible"/><rect style="isolation:auto;mix-blend-mode:normal;solid-color:#000;solid-opacity:1" width="1" height="1" x="56.706" y="1245.809" color="#000" enable-background="accumulate" overflow="visible"/><rect width="1" height="1" x="58.706" y="1245.809" style="isolation:auto;mix-blend-mode:normal;solid-color:#000;solid-opacity:1" color="#000" enable-background="accumulate" overflow="visible"/><rect style="isolation:auto;mix-blend-mode:normal;solid-color:#000;solid-opacity:1" width="1" height="1" x="60.706" y="1245.809" color="#000" enable-background="accumulate" overflow="visible"/><rect width="1" height="1" x="62.706" y="1245.809" style="isolation:auto;mix-blend-mode:normal;solid-color:#000;solid-opacity:1" color="#000" enable-background="accumulate" overflow="visible"/><rect style="isolation:auto;mix-blend-mode:normal;solid-color:#000;solid-opacity:1" width="1" height="1" x="64.706" y="1245.809" color="#000" enable-background="accumulate" overflow="visible"/><rect width="1" height="1" x="66.706" y="1245.809" style="isolation:auto;mix-blend-mode:normal;solid-color:#000;solid-opacity:1" color="#000" enable-background="accumulate" overflow="visible"/><rect style="isolation:auto;mix-blend-mode:normal;solid-color:#000;solid-opacity:1" width="1" height="1" x="68.706" y="1245.809" color="#000" enable-background="accumulate" overflow="visible"/><rect width="1" height="1" x="70.706" y="1245.809" style="isolation:auto;mix-blend-mode:normal;solid-color:#000;solid-opacity:1" color="#000" enable-background="accumulate" overflow="visible"/><path d="m 71.206244,1238.3095 c -1.108005,0 -2,0.892 -2,2 0,1.108 0.891995,2 2,2 l 3,0 1,0 2,0 0,-2 0,-2 -2,0 -1,0 -3,0 z" style="isolation:auto;mix-blend-mode:normal;solid-color:#000;solid-opacity:1" fill="#934d25" color="#000" enable-background="accumulate" overflow="visible"/><rect width="1" height="1" x="70.706" y="1239.809" style="isolation:auto;mix-blend-mode:normal;solid-color:#000;solid-opacity:1" fill="#f2b233" color="#000" enable-background="accumulate" overflow="visible"/><circle style="isolation:auto;mix-blend-mode:normal;solid-color:#000;solid-opacity:1" cx="58.706" cy="1231.809" r="5.5" fill="#f3b843" color="#000" enable-background="accumulate" overflow="visible"/><circle cx="58.706" cy="1231.809" style="isolation:auto;mix-blend-mode:normal;solid-color:#000;solid-opacity:1" r="3.379" fill="#f9db7a" color="#000" enable-background="accumulate" overflow="visible"/><path fill="#6f3a1c" d="m 73.041016,217.94727 c 0.773196,1.30703 1.429701,2.64806 1.943359,4 l 0.222656,0 2,0 0,-2 0,-2 -2,0 -1,0 -1.166015,0 z" color="#000" enable-background="accumulate" overflow="visible" transform="translate(0 1020.362)" style="isolation:auto;mix-blend-mode:normal;solid-color:#000;solid-opacity:1"/><path fill="#e3a12c" d="m 58.707031,205.94727 a 5.5,5.4999957 0 0 0 -3.248047,1.06835 c 2.517223,1.49849 5.127567,3.93782 8.021485,6.95704 0.02377,0.0248 0.04655,0.0513 0.07031,0.0762 a 5.5,5.4999957 0 0 0 0.65625,-2.60156 5.5,5.4999957 0 0 0 -5.5,-5.5 z" color="#000" enable-background="accumulate" overflow="visible" transform="translate(0 1020.362)" style="isolation:auto;mix-blend-mode:normal;solid-color:#000;solid-opacity:1"/><path fill="#f4bd4f" d="m 58.707031,208.06836 a 3.3786798,3.3786771 0 0 0 -1.308593,0.26758 c 1.452109,1.10326 2.965044,2.51052 4.541015,4.08789 a 3.3786798,3.3786771 0 0 0 0.144531,-0.97656 3.3786798,3.3786771 0 0 0 -3.376953,-3.37891 z" color="#000" enable-background="accumulate" overflow="visible" transform="translate(0 1020.362)" style="isolation:auto;mix-blend-mode:normal;solid-color:#000;solid-opacity:1"/><circle cx="58.706" cy="1231.809" style="isolation:auto;mix-blend-mode:normal;solid-color:#000;solid-opacity:1" r="5.5" fill="none" stroke="#000" stroke-linecap="round" stroke-linejoin="round" color="#000" enable-background="accumulate" overflow="visible"/><ellipse cx="-197.728" cy="1215.214" fill="#ffeebd" color="#000" enable-background="accumulate" overflow="visible" rx=".761" ry="1.679" transform="matrix(.97616 -.21705 .20587 .97858 0 0)" style="isolation:auto;mix-blend-mode:normal;solid-color:#000;solid-opacity:1"/><path style="isolation:auto;mix-blend-mode:normal;solid-color:#000;solid-opacity:1" fill="none" stroke="#000" stroke-linejoin="round" d="m 64.270701,1232.3095 11.435526,0 c 0.831009,0 1.500017,0.669 1.500017,1.5 l 0,13 c 0,0.831 -0.669008,1.5 -1.500017,1.5 l -18.999966,0 c -0.831009,0 -1.500017,-0.669 -1.500017,-1.5 l 0,-10.7598" color="#000" enable-background="accumulate" overflow="visible"/><path style="isolation:auto;mix-blend-mode:normal;solid-color:#000;solid-opacity:1" fill="none" stroke="#000" stroke-linecap="round" stroke-linejoin="round" d="m 71.206244,1238.3095 c -1.108005,0 -2,0.892 -2,2 0,1.108 0.891995,2 2,2 l 3,0 1,0 2,0 0,-2 0,-2 -2,0 -1,0 -3,0 z" color="#000" enable-background="accumulate" overflow="visible"/></g><path d="m 79.215988,1110.1908 1.296544,2.5569 -1.288487,0 0,1.0308 1.811937,0 0.138918,0.2758 0,0.755 -1.950855,0 0,1.0308 1.950855,0 0,2.0616 1.030802,0 0,-2.0616 1.997155,0 0,-1.0308 -1.997155,0 0,-0.6683 0.1832,-0.3625 1.813955,0 0,-1.0308 -1.290497,0 1.296544,-2.5569 -0.0083,0 -1.163682,0 -1.294525,2.5569 -0.05645,0 -1.296535,-2.5569 -1.165692,0 -0.0083,0 z" style="line-height:normal;text-indent:0;text-align:start;text-decoration-line:none;text-decoration-style:solid;text-decoration-color:#000;text-transform:none;block-progression:tb;white-space:normal;isolation:auto;mix-blend-mode:normal;solid-color:#000;solid-opacity:1" fill="#a67216" fill-rule="evenodd" color="#000" enable-background="accumulate" font-family="sans-serif" font-weight="400" overflow="visible"/></g></g></svg>